<svg width="22" height="14" viewBox="0 0 22 14" fill="none" xmlns="http://www.w3.org/2000/svg">
<path fill-rule="evenodd" clip-rule="evenodd" d="M1.60634 0H20.3932C21.0022 0 21.5003 0.498167 21.5003 1.10717V1.22617C21.5003 1.83517 21.0022 2.33333 20.3932 2.33333H1.60634C0.997336 2.33333 0.500336 1.83517 0.500336 1.22617V1.10717C0.500336 0.498167 0.997336 0 1.60634 0ZM20.3932 5.83333H1.60634C0.997336 5.83333 0.500336 6.3315 0.500336 6.9405V7.0595C0.500336 7.6685 0.997336 8.16667 1.60634 8.16667H20.3932C21.0022 8.16667 21.5003 7.6685 21.5003 7.0595V6.9405C21.5003 6.3315 21.0022 5.83333 20.3932 5.83333ZM20.3932 11.6667H1.60634C0.997336 11.6667 0.500336 12.1648 0.500336 12.7738V12.8928C0.500336 13.5018 0.997336 14 1.60634 14H20.3932C21.0022 14 21.5003 13.5018 21.5003 12.8928V12.7738C21.5003 12.1648 21.0022 11.6667 20.3932 11.6667Z" fill="#BFBFBF"/>
</svg>
