<svg width="18" height="16" viewBox="0 0 18 16" fill="none" xmlns="http://www.w3.org/2000/svg">
<path fill-rule="evenodd" clip-rule="evenodd" d="M14 6.33333C14 5.87417 13.6267 5.5 13.1667 5.5C12.7067 5.5 12.3333 5.87417 12.3333 6.33333C12.3333 6.7925 12.7067 7.16667 13.1667 7.16667C13.6267 7.16667 14 6.7925 14 6.33333ZM15.6667 6.33333C15.6667 7.71167 14.545 8.83333 13.1667 8.83333C11.7883 8.83333 10.6667 7.71167 10.6667 6.33333C10.6667 4.955 11.7883 3.83333 13.1667 3.83333C14.545 3.83333 15.6667 4.955 15.6667 6.33333ZM8.16666 3.83333C8.16666 2.91417 7.41916 2.16667 6.49999 2.16667C5.58082 2.16667 4.83332 2.91417 4.83332 3.83333C4.83332 4.7525 5.58082 5.5 6.49999 5.5C7.41916 5.5 8.16666 4.7525 8.16666 3.83333ZM9.83332 3.83333C9.83332 5.67167 8.33832 7.16667 6.49999 7.16667C4.66166 7.16667 3.16666 5.67167 3.16666 3.83333C3.16666 1.995 4.66166 0.5 6.49999 0.5C8.33832 0.5 9.83332 1.995 9.83332 3.83333ZM10.6167 10.5383C11.3408 9.97833 12.2325 9.66667 13.1667 9.66667C15.4642 9.66667 17.3333 11.5358 17.3333 13.8333C17.3333 14.2933 16.9608 14.6667 16.5 14.6667C16.0392 14.6667 15.6667 14.2933 15.6667 13.8333C15.6667 12.455 14.545 11.3333 13.1667 11.3333C12.5975 11.3333 12.0567 11.5283 11.62 11.8742C12.0733 12.7042 12.3333 13.6558 12.3333 14.6667C12.3333 15.1267 11.9608 15.5 11.5 15.5C11.0392 15.5 10.6667 15.1267 10.6667 14.6667C10.6667 12.3692 8.79749 10.5 6.49999 10.5C4.20249 10.5 2.33332 12.3692 2.33332 14.6667C2.33332 15.1267 1.96082 15.5 1.49999 15.5C1.03916 15.5 0.666656 15.1267 0.666656 14.6667C0.666656 11.45 3.28416 8.83333 6.49999 8.83333C8.10582 8.83333 9.56082 9.48583 10.6167 10.5383Z" fill="#999999"/>
</svg>
