<svg width="16" height="16" viewBox="0 0 16 16" fill="currentColor" xmlns="http://www.w3.org/2000/svg">
<path fill-rule="evenodd" clip-rule="evenodd" d="M3 2.16667H13.0034C13.4636 2.16667 13.8367 2.53976 13.8367 3V8.26548C13.8367 8.72572 13.4636 9.09881 13.0034 9.09881H3C2.53976 9.09881 2.16667 8.72572 2.16667 8.26548V3C2.16667 2.53976 2.53976 2.16667 3 2.16667ZM0.5 3C0.5 1.61929 1.61929 0.5 3 0.5H13.0034C14.3841 0.5 15.5034 1.61929 15.5034 3V8.26548C15.5034 9.64619 14.3841 10.7655 13.0034 10.7655H3C1.61929 10.7655 0.5 9.64619 0.5 8.26548V3ZM3.65929 12.3414C2.78706 12.3414 2.07998 13.0485 2.07998 13.9207C2.07998 14.7929 2.78706 15.5 3.65929 15.5H12.3455C13.2177 15.5 13.9248 14.7929 13.9248 13.9207C13.9248 13.0485 13.2177 12.3414 12.3455 12.3414H3.65929Z" fill="currentColor"/>
</svg>
