<svg width="16" height="16" viewBox="0 0 16 16" fill="none" xmlns="http://www.w3.org/2000/svg">
<path fill-rule="evenodd" clip-rule="evenodd" d="M3 0.5C1.61929 0.5 0.5 1.61929 0.5 3V8.26548C0.5 9.64619 1.61929 10.7655 3 10.7655H13.0034C14.3841 10.7655 15.5034 9.64619 15.5034 8.26548V3C15.5034 1.61929 14.3841 0.5 13.0034 0.5H3ZM3.65929 12.3414C2.78706 12.3414 2.07998 13.0485 2.07998 13.9207C2.07998 14.7929 2.78706 15.5 3.65929 15.5H12.3455C13.2177 15.5 13.9248 14.7929 13.9248 13.9207C13.9248 13.0485 13.2177 12.3414 12.3455 12.3414H3.65929Z" fill="#BFBFBF"/>
</svg>
